<svg xmlns="http://www.w3.org/2000/svg" xmlns:xlink="http://www.w3.org/1999/xlink" width="500" zoomAndPan="magnify" viewBox="0 0 375 374.999991" height="500" preserveAspectRatio="xMidYMid meet" version="1.0"><defs><g/><clipPath id="c6bc5e9b05"><path d="M 288.578125 180.371094 L 349 180.371094 L 349 200.605469 L 288.578125 200.605469 Z M 288.578125 180.371094 " clip-rule="nonzero"/></clipPath><clipPath id="93d40cb945"><path d="M 266 60 L 353 60 L 353 157 L 266 157 Z M 266 60 " clip-rule="nonzero"/></clipPath><clipPath id="a35132e297"><path d="M 239.519531 45.425781 L 354.761719 60.710938 L 337.5 190.824219 L 222.261719 175.535156 Z M 239.519531 45.425781 " clip-rule="nonzero"/></clipPath><clipPath id="8251bbf2e5"><path d="M 239.519531 45.425781 L 354.761719 60.710938 L 337.5 190.824219 L 222.261719 175.535156 Z M 239.519531 45.425781 " clip-rule="nonzero"/></clipPath><clipPath id="d2058e13e2"><path d="M 231 67 L 259 67 L 259 157 L 231 157 Z M 231 67 " clip-rule="nonzero"/></clipPath><clipPath id="a28484fbbd"><path d="M 239.519531 45.425781 L 354.761719 60.710938 L 337.5 190.824219 L 222.261719 175.535156 Z M 239.519531 45.425781 " clip-rule="nonzero"/></clipPath><clipPath id="7441603824"><path d="M 239.519531 45.425781 L 354.761719 60.710938 L 337.5 190.824219 L 222.261719 175.535156 Z M 239.519531 45.425781 " clip-rule="nonzero"/></clipPath><clipPath id="09b2470658"><path d="M 278 152 L 332 152 L 332 184 L 278 184 Z M 278 152 " clip-rule="nonzero"/></clipPath><clipPath id="23c2dc4e7a"><path d="M 239.519531 45.425781 L 354.761719 60.710938 L 337.5 190.824219 L 222.261719 175.535156 Z M 239.519531 45.425781 " clip-rule="nonzero"/></clipPath><clipPath id="549c3fc9ae"><path d="M 239.519531 45.425781 L 354.761719 60.710938 L 337.5 190.824219 L 222.261719 175.535156 Z M 239.519531 45.425781 " clip-rule="nonzero"/></clipPath><clipPath id="6cd4b51440"><path d="M 269 220 L 330 220 L 330 333 L 269 333 Z M 269 220 " clip-rule="nonzero"/></clipPath><clipPath id="2f5fa81f39"><path d="M 384.46875 236.945312 L 326.007812 337.425781 L 212.5625 271.421875 L 271.023438 170.941406 Z M 384.46875 236.945312 " clip-rule="nonzero"/></clipPath><clipPath id="5179ff53e0"><path d="M 384.46875 236.945312 L 326.007812 337.425781 L 212.5625 271.421875 L 271.023438 170.941406 Z M 384.46875 236.945312 " clip-rule="nonzero"/></clipPath><clipPath id="985cb8bfdc"><path d="M 281 190 L 359 190 L 359 244 L 281 244 Z M 281 190 " clip-rule="nonzero"/></clipPath><clipPath id="1c48f22f2e"><path d="M 384.46875 236.945312 L 326.007812 337.425781 L 212.5625 271.421875 L 271.023438 170.941406 Z M 384.46875 236.945312 " clip-rule="nonzero"/></clipPath><clipPath id="4a71a4242c"><path d="M 384.46875 236.945312 L 326.007812 337.425781 L 212.5625 271.421875 L 271.023438 170.941406 Z M 384.46875 236.945312 " clip-rule="nonzero"/></clipPath><clipPath id="82a683c3ae"><path d="M 235 221 L 255 221 L 255 279 L 235 279 Z M 235 221 " clip-rule="nonzero"/></clipPath><clipPath id="14a297783b"><path d="M 384.46875 236.945312 L 326.007812 337.425781 L 212.5625 271.421875 L 271.023438 170.941406 Z M 384.46875 236.945312 " clip-rule="nonzero"/></clipPath><clipPath id="ce5e2c5e17"><path d="M 384.46875 236.945312 L 326.007812 337.425781 L 212.5625 271.421875 L 271.023438 170.941406 Z M 384.46875 236.945312 " clip-rule="nonzero"/></clipPath></defs><rect x="-37.5" width="450" fill="#ffffff" y="-37.499999" height="449.999989" fill-opacity="1"/><rect x="-37.5" width="450" fill="#ffffff" y="-37.499999" height="449.999989" fill-opacity="1"/><rect x="-37.5" width="450" fill="#1e293b" y="-37.499999" height="449.999989" fill-opacity="1"/><g fill="#f8fafc" fill-opacity="1"><g transform="translate(49.406623, 203.800549)"><g><path d="M 3.640625 0 L 3.640625 -34.421875 L 7.765625 -34.421875 L 7.765625 0 Z M 3.640625 0 "/></g></g></g><g fill="#f8fafc" fill-opacity="1"><g transform="translate(68.43711, 203.800549)"><g><path d="M 3.640625 0 L 3.640625 -34.421875 L 7.765625 -34.421875 L 26.109375 -6.828125 L 26.109375 -34.421875 L 30.234375 -34.421875 L 30.234375 0 L 26.109375 0 L 7.765625 -27.578125 L 7.765625 0 Z M 3.640625 0 "/></g></g></g><g fill="#f8fafc" fill-opacity="1"><g transform="translate(109.939135, 203.800549)"><g><path d="M 3.640625 0 L 3.640625 -34.421875 L 14.203125 -34.421875 C 20.273438 -34.421875 24.742188 -32.878906 27.609375 -29.796875 C 30.472656 -26.710938 31.90625 -22.484375 31.90625 -17.109375 C 31.90625 -11.828125 30.472656 -7.65625 27.609375 -4.59375 C 24.742188 -1.53125 20.273438 0 14.203125 0 Z M 7.765625 -3.4375 L 14.109375 -3.4375 C 17.453125 -3.4375 20.113281 -3.984375 22.09375 -5.078125 C 24.082031 -6.179688 25.503906 -7.757812 26.359375 -9.8125 C 27.210938 -11.863281 27.640625 -14.296875 27.640625 -17.109375 C 27.640625 -19.992188 27.210938 -22.46875 26.359375 -24.53125 C 25.503906 -26.601562 24.082031 -28.195312 22.09375 -29.3125 C 20.113281 -30.425781 17.453125 -30.984375 14.109375 -30.984375 L 7.765625 -30.984375 Z M 7.765625 -3.4375 "/></g></g></g><g fill="#f8fafc" fill-opacity="1"><g transform="translate(151.78537, 203.800549)"><g><path d="M 12.1875 0 L 12.1875 -13.078125 L 0.984375 -34.421875 L 5.65625 -34.421875 L 14.265625 -17.015625 L 22.859375 -34.421875 L 27.484375 -34.421875 L 16.328125 -13.078125 L 16.328125 0 Z M 12.1875 0 "/></g></g></g><g fill="#f59e0b" fill-opacity="1"><g transform="translate(187.875364, 203.800549)"><g><path d="M 18.390625 0.59375 C 15.140625 0.59375 12.300781 -0.140625 9.875 -1.609375 C 7.457031 -3.085938 5.578125 -5.144531 4.234375 -7.78125 C 2.890625 -10.425781 2.21875 -13.503906 2.21875 -17.015625 C 2.21875 -20.554688 2.910156 -23.675781 4.296875 -26.375 C 5.691406 -29.082031 7.675781 -31.195312 10.25 -32.71875 C 12.820312 -34.25 15.878906 -35.015625 19.421875 -35.015625 C 23.453125 -35.015625 26.796875 -34.046875 29.453125 -32.109375 C 32.109375 -30.171875 33.828125 -27.5 34.609375 -24.09375 L 27.578125 -24.09375 C 27.054688 -25.695312 26.109375 -26.945312 24.734375 -27.84375 C 23.359375 -28.75 21.585938 -29.203125 19.421875 -29.203125 C 15.984375 -29.203125 13.328125 -28.113281 11.453125 -25.9375 C 9.585938 -23.757812 8.65625 -20.769531 8.65625 -16.96875 C 8.65625 -13.164062 9.578125 -10.222656 11.421875 -8.140625 C 13.273438 -6.054688 15.796875 -5.015625 18.984375 -5.015625 C 22.097656 -5.015625 24.445312 -5.859375 26.03125 -7.546875 C 27.625 -9.234375 28.582031 -11.453125 28.90625 -14.203125 L 20.203125 -14.203125 L 20.203125 -18.9375 L 35.25 -18.9375 L 35.25 0 L 29.453125 0 L 28.96875 -4.53125 C 27.851562 -2.882812 26.457031 -1.617188 24.78125 -0.734375 C 23.113281 0.148438 20.984375 0.59375 18.390625 0.59375 Z M 18.390625 0.59375 "/></g></g></g><g fill="#f59e0b" fill-opacity="1"><g transform="translate(233.507836, 203.800549)"><g><path d="M 19.46875 0.59375 C 16.03125 0.59375 13.023438 -0.160156 10.453125 -1.671875 C 7.878906 -3.179688 5.863281 -5.269531 4.40625 -7.9375 C 2.945312 -10.613281 2.21875 -13.703125 2.21875 -17.203125 C 2.21875 -20.710938 2.945312 -23.800781 4.40625 -26.46875 C 5.863281 -29.144531 7.878906 -31.238281 10.453125 -32.75 C 13.023438 -34.257812 16.03125 -35.015625 19.46875 -35.015625 C 22.882812 -35.015625 25.882812 -34.257812 28.46875 -32.75 C 31.0625 -31.238281 33.078125 -29.144531 34.515625 -26.46875 C 35.960938 -23.800781 36.6875 -20.710938 36.6875 -17.203125 C 36.6875 -13.703125 35.960938 -10.613281 34.515625 -7.9375 C 33.078125 -5.269531 31.0625 -3.179688 28.46875 -1.671875 C 25.882812 -0.160156 22.882812 0.59375 19.46875 0.59375 Z M 19.46875 -5.0625 C 22.75 -5.0625 25.363281 -6.144531 27.3125 -8.3125 C 29.257812 -10.476562 30.234375 -13.441406 30.234375 -17.203125 C 30.234375 -20.972656 29.257812 -23.941406 27.3125 -26.109375 C 25.363281 -28.273438 22.75 -29.359375 19.46875 -29.359375 C 16.195312 -29.359375 13.578125 -28.273438 11.609375 -26.109375 C 9.640625 -23.941406 8.65625 -20.972656 8.65625 -17.203125 C 8.65625 -13.441406 9.640625 -10.476562 11.609375 -8.3125 C 13.578125 -6.144531 16.195312 -5.0625 19.46875 -5.0625 Z M 19.46875 -5.0625 "/></g></g></g><g clip-path="url(#c6bc5e9b05)"><path fill="#1e293b" d="M 288.578125 180.371094 L 348.34375 180.371094 L 348.34375 201.464844 L 288.578125 201.464844 Z M 288.578125 180.371094 " fill-opacity="1" fill-rule="nonzero"/></g><g clip-path="url(#93d40cb945)"><g clip-path="url(#a35132e297)"><g clip-path="url(#8251bbf2e5)"><path fill="#c7d2fe" d="M 271.960938 156.496094 C 266.308594 156.503906 265.171875 149.167969 268.878906 145.824219 C 269.167969 136.441406 275.792969 130.011719 280.074219 122.316406 C 291.09375 105.851562 306.976562 92.304688 320.214844 77.410156 C 329.015625 72.550781 334.773438 63.652344 344.945312 60.769531 C 354.351562 60.660156 353.277344 71.734375 348.589844 77.382812 C 346.09375 85.996094 337.78125 90.164062 331.6875 95.902344 C 311.789062 116.023438 291.863281 136.335938 271.960938 156.496094 Z M 271.960938 156.496094 " fill-opacity="1" fill-rule="nonzero"/></g></g></g><g clip-path="url(#d2058e13e2)"><g clip-path="url(#a28484fbbd)"><g clip-path="url(#7441603824)"><path fill="#c7d2fe" d="M 248.863281 69.625 C 268.496094 57.535156 252.488281 109.792969 252.210938 117.898438 C 250.28125 127.945312 250.988281 138.820312 246.230469 147.972656 C 239.660156 164.507812 232.234375 153.898438 231.65625 141.445312 C 233.210938 117.136719 233.632812 89.960938 248.863281 69.625 Z M 248.863281 69.625 " fill-opacity="1" fill-rule="nonzero"/></g></g></g><g clip-path="url(#09b2470658)"><g clip-path="url(#23c2dc4e7a)"><g clip-path="url(#549c3fc9ae)"><path fill="#c7d2fe" d="M 329.898438 153.480469 C 333.164062 159.464844 330.257812 162.472656 324.683594 166.402344 C 324.527344 169.378906 321.714844 171.398438 318.988281 171.835938 C 310.257812 173.472656 305.121094 179.5 297.785156 182.601562 C 293.507812 181.554688 290.671875 182.214844 285.785156 183.960938 C 258.730469 177.339844 320.039062 148.9375 329.898438 153.480469 Z M 329.898438 153.480469 " fill-opacity="1" fill-rule="nonzero"/></g></g></g><g clip-path="url(#6cd4b51440)"><g clip-path="url(#2f5fa81f39)"><g clip-path="url(#5179ff53e0)"><path fill="#c7d2fe" d="M 269.46875 224.140625 C 271.636719 218.921875 278.847656 220.695312 280.503906 225.402344 C 289.054688 229.28125 292.4375 237.867188 297.894531 244.785156 C 308.851562 261.292969 315.238281 281.164062 323.890625 299.113281 C 324.992188 309.109375 330.988281 317.847656 329.734375 328.34375 C 326.21875 337.066406 316.40625 331.816406 313 325.316406 C 306.007812 319.695312 305.363281 310.421875 302.410156 302.585938 C 291.496094 276.480469 280.414062 250.269531 269.46875 224.140625 Z M 269.46875 224.140625 " fill-opacity="1" fill-rule="nonzero"/></g></g></g><g clip-path="url(#985cb8bfdc)"><g clip-path="url(#1c48f22f2e)"><g clip-path="url(#4a71a4242c)"><path fill="#c7d2fe" d="M 358.539062 236.257812 C 362.144531 259.027344 320.070312 224.144531 312.691406 220.765625 C 304.164062 215.117188 293.855469 211.585938 287.238281 203.671875 C 274.503906 191.246094 287.152344 188.472656 298.871094 192.734375 C 320.710938 203.523438 345.628906 214.371094 358.539062 236.257812 Z M 358.539062 236.257812 " fill-opacity="1" fill-rule="nonzero"/></g></g></g><g clip-path="url(#82a683c3ae)"><g clip-path="url(#14a297783b)"><g clip-path="url(#ce5e2c5e17)"><path fill="#c7d2fe" d="M 249.953125 278.777344 C 243.175781 279.488281 241.515625 275.648438 240.035156 268.992188 C 237.347656 267.703125 236.566406 264.324219 237.210938 261.644531 C 239.0625 252.953125 235.476562 245.894531 235.4375 237.929688 C 238.050781 234.382812 238.527344 231.515625 238.796875 226.332031 C 255.324219 203.90625 257.941406 271.421875 249.953125 278.777344 Z M 249.953125 278.777344 " fill-opacity="1" fill-rule="nonzero"/></g></g></g></svg>