<svg xmlns="http://www.w3.org/2000/svg" xmlns:xlink="http://www.w3.org/1999/xlink" width="500" zoomAndPan="magnify" viewBox="0 0 375 374.999991" height="500" preserveAspectRatio="xMidYMid meet" version="1.0"><defs><g/><clipPath id="3ac878658d"><path d="M 231 261 L 233 261 L 233 300.257812 L 231 300.257812 Z M 231 261 " clip-rule="nonzero"/></clipPath><clipPath id="e0bae20af6"><path d="M 231 74.507812 L 233 74.507812 L 233 114 L 231 114 Z M 231 74.507812 " clip-rule="nonzero"/></clipPath><clipPath id="84aed8deab"><path d="M 306 186 L 344.941406 186 L 344.941406 189 L 306 189 Z M 306 186 " clip-rule="nonzero"/></clipPath><clipPath id="ae5dbdb469"><path d="M 152.191406 239 L 180 239 L 180 268 L 152.191406 268 Z M 152.191406 239 " clip-rule="nonzero"/></clipPath><clipPath id="6b394309da"><path d="M 152.191406 107 L 181 107 L 181 136 L 152.191406 136 Z M 152.191406 107 " clip-rule="nonzero"/></clipPath></defs><rect x="-37.5" width="450" fill="#ffffff" y="-37.499999" height="449.999989" fill-opacity="1"/><rect x="-37.5" width="450" fill="#ffffff" y="-37.499999" height="449.999989" fill-opacity="1"/><rect x="-37.5" width="450" fill="#1e293b" y="-37.499999" height="449.999989" fill-opacity="1"/><g fill="#f8fafc" fill-opacity="1"><g transform="translate(49.406623, 203.800549)"><g><path d="M 3.640625 0 L 3.640625 -34.421875 L 7.765625 -34.421875 L 7.765625 0 Z M 3.640625 0 "/></g></g></g><g fill="#f8fafc" fill-opacity="1"><g transform="translate(68.43711, 203.800549)"><g><path d="M 3.640625 0 L 3.640625 -34.421875 L 7.765625 -34.421875 L 26.109375 -6.828125 L 26.109375 -34.421875 L 30.234375 -34.421875 L 30.234375 0 L 26.109375 0 L 7.765625 -27.578125 L 7.765625 0 Z M 3.640625 0 "/></g></g></g><g fill="#f8fafc" fill-opacity="1"><g transform="translate(109.939135, 203.800549)"><g><path d="M 3.640625 0 L 3.640625 -34.421875 L 14.203125 -34.421875 C 20.273438 -34.421875 24.742188 -32.878906 27.609375 -29.796875 C 30.472656 -26.710938 31.90625 -22.484375 31.90625 -17.109375 C 31.90625 -11.828125 30.472656 -7.65625 27.609375 -4.59375 C 24.742188 -1.53125 20.273438 0 14.203125 0 Z M 7.765625 -3.4375 L 14.109375 -3.4375 C 17.453125 -3.4375 20.113281 -3.984375 22.09375 -5.078125 C 24.082031 -6.179688 25.503906 -7.757812 26.359375 -9.8125 C 27.210938 -11.863281 27.640625 -14.296875 27.640625 -17.109375 C 27.640625 -19.992188 27.210938 -22.46875 26.359375 -24.53125 C 25.503906 -26.601562 24.082031 -28.195312 22.09375 -29.3125 C 20.113281 -30.425781 17.453125 -30.984375 14.109375 -30.984375 L 7.765625 -30.984375 Z M 7.765625 -3.4375 "/></g></g></g><g fill="#f8fafc" fill-opacity="1"><g transform="translate(151.78537, 203.800549)"><g><path d="M 12.1875 0 L 12.1875 -13.078125 L 0.984375 -34.421875 L 5.65625 -34.421875 L 14.265625 -17.015625 L 22.859375 -34.421875 L 27.484375 -34.421875 L 16.328125 -13.078125 L 16.328125 0 Z M 12.1875 0 "/></g></g></g><g fill="#f59e0b" fill-opacity="1"><g transform="translate(187.875364, 203.800549)"><g><path d="M 18.390625 0.59375 C 15.140625 0.59375 12.300781 -0.140625 9.875 -1.609375 C 7.457031 -3.085938 5.578125 -5.144531 4.234375 -7.78125 C 2.890625 -10.425781 2.21875 -13.503906 2.21875 -17.015625 C 2.21875 -20.554688 2.910156 -23.675781 4.296875 -26.375 C 5.691406 -29.082031 7.675781 -31.195312 10.25 -32.71875 C 12.820312 -34.25 15.878906 -35.015625 19.421875 -35.015625 C 23.453125 -35.015625 26.796875 -34.046875 29.453125 -32.109375 C 32.109375 -30.171875 33.828125 -27.5 34.609375 -24.09375 L 27.578125 -24.09375 C 27.054688 -25.695312 26.109375 -26.945312 24.734375 -27.84375 C 23.359375 -28.75 21.585938 -29.203125 19.421875 -29.203125 C 15.984375 -29.203125 13.328125 -28.113281 11.453125 -25.9375 C 9.585938 -23.757812 8.65625 -20.769531 8.65625 -16.96875 C 8.65625 -13.164062 9.578125 -10.222656 11.421875 -8.140625 C 13.273438 -6.054688 15.796875 -5.015625 18.984375 -5.015625 C 22.097656 -5.015625 24.445312 -5.859375 26.03125 -7.546875 C 27.625 -9.234375 28.582031 -11.453125 28.90625 -14.203125 L 20.203125 -14.203125 L 20.203125 -18.9375 L 35.25 -18.9375 L 35.25 0 L 29.453125 0 L 28.96875 -4.53125 C 27.851562 -2.882812 26.457031 -1.617188 24.78125 -0.734375 C 23.113281 0.148438 20.984375 0.59375 18.390625 0.59375 Z M 18.390625 0.59375 "/></g></g></g><g fill="#f59e0b" fill-opacity="1"><g transform="translate(233.507836, 203.800549)"><g><path d="M 19.46875 0.59375 C 16.03125 0.59375 13.023438 -0.160156 10.453125 -1.671875 C 7.878906 -3.179688 5.863281 -5.269531 4.40625 -7.9375 C 2.945312 -10.613281 2.21875 -13.703125 2.21875 -17.203125 C 2.21875 -20.710938 2.945312 -23.800781 4.40625 -26.46875 C 5.863281 -29.144531 7.878906 -31.238281 10.453125 -32.75 C 13.023438 -34.257812 16.03125 -35.015625 19.46875 -35.015625 C 22.882812 -35.015625 25.882812 -34.257812 28.46875 -32.75 C 31.0625 -31.238281 33.078125 -29.144531 34.515625 -26.46875 C 35.960938 -23.800781 36.6875 -20.710938 36.6875 -17.203125 C 36.6875 -13.703125 35.960938 -10.613281 34.515625 -7.9375 C 33.078125 -5.269531 31.0625 -3.179688 28.46875 -1.671875 C 25.882812 -0.160156 22.882812 0.59375 19.46875 0.59375 Z M 19.46875 -5.0625 C 22.75 -5.0625 25.363281 -6.144531 27.3125 -8.3125 C 29.257812 -10.476562 30.234375 -13.441406 30.234375 -17.203125 C 30.234375 -20.972656 29.257812 -23.941406 27.3125 -26.109375 C 25.363281 -28.273438 22.75 -29.359375 19.46875 -29.359375 C 16.195312 -29.359375 13.578125 -28.273438 11.609375 -26.109375 C 9.640625 -23.941406 8.65625 -20.972656 8.65625 -17.203125 C 8.65625 -13.441406 9.640625 -10.476562 11.609375 -8.3125 C 13.578125 -6.144531 16.195312 -5.0625 19.46875 -5.0625 Z M 19.46875 -5.0625 "/></g></g></g><g clip-path="url(#3ac878658d)"><path fill="#c7d2fe" d="M 232.210938 261.761719 C 232.007812 261.761719 231.835938 261.832031 231.695312 261.972656 C 231.550781 262.117188 231.480469 262.289062 231.480469 262.488281 L 231.480469 299.421875 C 231.484375 299.625 231.554688 299.792969 231.695312 299.9375 C 231.839844 300.078125 232.011719 300.152344 232.210938 300.152344 C 232.414062 300.152344 232.582031 300.078125 232.726562 299.9375 C 232.867188 299.792969 232.941406 299.625 232.941406 299.421875 L 232.941406 262.488281 C 232.941406 262.289062 232.871094 262.117188 232.726562 261.972656 C 232.585938 261.832031 232.414062 261.761719 232.210938 261.761719 Z M 232.210938 261.761719 " fill-opacity="1" fill-rule="nonzero"/></g><g clip-path="url(#e0bae20af6)"><path fill="#c7d2fe" d="M 232.160156 113.183594 C 232.363281 113.179688 232.535156 113.109375 232.675781 112.96875 C 232.820312 112.824219 232.890625 112.652344 232.890625 112.453125 L 232.890625 75.445312 C 232.90625 75.230469 232.84375 75.046875 232.699219 74.890625 C 232.554688 74.734375 232.375 74.65625 232.164062 74.65625 C 231.949219 74.65625 231.773438 74.734375 231.628906 74.890625 C 231.484375 75.046875 231.417969 75.230469 231.4375 75.445312 L 231.4375 112.453125 C 231.4375 112.652344 231.507812 112.824219 231.648438 112.96875 C 231.789062 113.109375 231.960938 113.179688 232.160156 113.183594 Z M 232.160156 113.183594 " fill-opacity="1" fill-rule="nonzero"/></g><g clip-path="url(#84aed8deab)"><path fill="#c7d2fe" d="M 344.179688 186.660156 L 307.210938 186.660156 C 307 186.644531 306.816406 186.707031 306.660156 186.851562 C 306.503906 186.996094 306.425781 187.175781 306.425781 187.386719 C 306.425781 187.601562 306.503906 187.777344 306.660156 187.921875 C 306.816406 188.066406 307 188.132812 307.210938 188.113281 L 344.183594 188.113281 C 344.386719 188.113281 344.558594 188.042969 344.703125 187.902344 C 344.84375 187.757812 344.914062 187.585938 344.914062 187.386719 C 344.914062 187.183594 344.84375 187.011719 344.703125 186.871094 C 344.558594 186.726562 344.386719 186.65625 344.183594 186.65625 Z M 344.179688 186.660156 " fill-opacity="1" fill-rule="nonzero"/></g><g clip-path="url(#ae5dbdb469)"><path fill="#c7d2fe" d="M 179.960938 240.402344 C 179.960938 240.078125 179.808594 239.855469 179.511719 239.734375 C 179.214844 239.609375 178.949219 239.660156 178.71875 239.886719 L 152.503906 266.132812 C 152.277344 266.363281 152.222656 266.625 152.347656 266.925781 C 152.46875 267.222656 152.695312 267.375 153.015625 267.375 C 153.21875 267.375 153.386719 267.304688 153.53125 267.164062 L 179.75 240.910156 C 179.894531 240.769531 179.964844 240.601562 179.960938 240.402344 Z M 179.960938 240.402344 " fill-opacity="1" fill-rule="nonzero"/></g><path fill="#c7d2fe" d="M 284.589844 134.996094 C 284.730469 135.136719 284.902344 135.207031 285.105469 135.207031 C 285.304688 135.207031 285.476562 135.136719 285.617188 134.996094 L 311.871094 108.730469 C 312.019531 108.589844 312.097656 108.417969 312.097656 108.210938 C 312.101562 108.007812 312.03125 107.832031 311.886719 107.683594 C 311.738281 107.539062 311.5625 107.46875 311.359375 107.472656 C 311.152344 107.476562 310.980469 107.550781 310.839844 107.699219 L 284.589844 133.964844 C 284.449219 134.105469 284.375 134.277344 284.375 134.480469 C 284.375 134.679688 284.449219 134.851562 284.589844 134.996094 Z M 284.589844 134.996094 " fill-opacity="1" fill-rule="nonzero"/><g clip-path="url(#6b394309da)"><path fill="#c7d2fe" d="M 178.734375 135.066406 C 178.871094 135.226562 179.046875 135.3125 179.257812 135.316406 C 179.472656 135.324219 179.652344 135.253906 179.800781 135.105469 C 179.949219 134.953125 180.019531 134.773438 180.011719 134.5625 C 180.003906 134.347656 179.921875 134.175781 179.761719 134.035156 L 153.480469 107.75 C 153.335938 107.617188 153.167969 107.550781 152.96875 107.550781 C 152.773438 107.554688 152.605469 107.625 152.464844 107.765625 C 152.324219 107.90625 152.253906 108.074219 152.25 108.269531 C 152.246094 108.46875 152.3125 108.636719 152.449219 108.78125 Z M 178.734375 135.066406 " fill-opacity="1" fill-rule="nonzero"/></g><path fill="#c7d2fe" d="M 285.773438 239.941406 C 285.542969 239.714844 285.28125 239.664062 284.980469 239.789062 C 284.679688 239.910156 284.53125 240.136719 284.53125 240.460938 C 284.53125 240.660156 284.601562 240.832031 284.742188 240.972656 L 310.871094 267.097656 C 311.007812 267.257812 311.183594 267.339844 311.394531 267.347656 C 311.609375 267.355469 311.789062 267.285156 311.9375 267.132812 C 312.085938 266.984375 312.15625 266.800781 312.148438 266.589844 C 312.140625 266.378906 312.058594 266.203125 311.898438 266.066406 Z M 285.773438 239.941406 " fill-opacity="1" fill-rule="nonzero"/><path fill="#c7d2fe" d="M 301.0625 159.207031 C 301.015625 159.320312 301 159.4375 301.007812 159.558594 C 301.019531 159.683594 301.058594 159.792969 301.128906 159.894531 C 301.195312 160 301.28125 160.078125 301.390625 160.136719 C 301.496094 160.195312 301.613281 160.226562 301.734375 160.226562 C 301.828125 160.226562 301.917969 160.207031 302.003906 160.171875 L 336.382812 146.367188 C 336.554688 146.285156 336.675781 146.152344 336.742188 145.972656 C 336.8125 145.796875 336.8125 145.617188 336.742188 145.441406 C 336.667969 145.265625 336.546875 145.132812 336.375 145.050781 C 336.203125 144.972656 336.023438 144.957031 335.84375 145.015625 L 301.464844 158.824219 C 301.277344 158.898438 301.144531 159.027344 301.0625 159.207031 Z M 301.0625 159.207031 " fill-opacity="1" fill-rule="nonzero"/><path fill="#c7d2fe" d="M 191.121094 83.238281 C 191.046875 83.050781 190.917969 82.917969 190.730469 82.839844 C 190.546875 82.761719 190.359375 82.757812 190.175781 82.835938 C 189.988281 82.90625 189.851562 83.035156 189.773438 83.222656 C 189.695312 83.40625 189.691406 83.59375 189.769531 83.78125 L 203.589844 118.183594 C 203.714844 118.484375 203.9375 118.632812 204.265625 118.632812 C 204.359375 118.632812 204.449219 118.613281 204.539062 118.582031 C 204.726562 118.507812 204.859375 118.375 204.9375 118.191406 C 205.011719 118.003906 205.011719 117.820312 204.9375 117.632812 Z M 191.121094 83.238281 " fill-opacity="1" fill-rule="nonzero"/><path fill="#c7d2fe" d="M 260.835938 256.796875 C 260.753906 256.621094 260.625 256.5 260.445312 256.429688 C 260.265625 256.355469 260.082031 256.359375 259.90625 256.429688 C 259.726562 256.503906 259.59375 256.628906 259.515625 256.804688 C 259.433594 256.980469 259.425781 257.160156 259.484375 257.339844 L 273.257812 291.613281 C 273.339844 291.785156 273.472656 291.902344 273.648438 291.972656 C 273.828125 292.042969 274.007812 292.039062 274.183594 291.96875 C 274.359375 291.898438 274.492188 291.777344 274.570312 291.605469 C 274.652344 291.429688 274.664062 291.253906 274.609375 291.070312 Z M 260.835938 256.796875 " fill-opacity="1" fill-rule="nonzero"/><path fill="#c7d2fe" d="M 335.472656 230.722656 L 301.5 216.21875 C 301.316406 216.140625 301.128906 216.140625 300.941406 216.214844 C 300.757812 216.292969 300.625 216.421875 300.546875 216.605469 C 300.464844 216.792969 300.464844 216.976562 300.546875 217.160156 C 300.617188 217.347656 300.746094 217.484375 300.933594 217.5625 L 334.90625 232.066406 C 335 232.101562 335.09375 232.121094 335.195312 232.125 C 335.519531 232.121094 335.742188 231.972656 335.867188 231.671875 C 335.941406 231.488281 335.941406 231.304688 335.867188 231.121094 C 335.789062 230.933594 335.660156 230.800781 335.472656 230.722656 Z M 335.472656 230.722656 " fill-opacity="1" fill-rule="nonzero"/><path fill="#c7d2fe" d="M 261.363281 119.082031 C 261.457031 119.121094 261.554688 119.140625 261.652344 119.140625 C 261.976562 119.140625 262.199219 118.988281 262.324219 118.691406 L 276.828125 84.71875 C 276.90625 84.53125 276.910156 84.347656 276.835938 84.160156 C 276.757812 83.972656 276.628906 83.839844 276.445312 83.761719 C 276.257812 83.683594 276.074219 83.683594 275.886719 83.761719 C 275.699219 83.835938 275.566406 83.96875 275.492188 84.152344 L 260.980469 118.125 C 260.902344 118.308594 260.902344 118.496094 260.976562 118.679688 C 261.050781 118.867188 261.179688 119.003906 261.363281 119.082031 Z M 261.363281 119.082031 " fill-opacity="1" fill-rule="nonzero"/><path fill="#c7d2fe" d="M 203.023438 255.734375 C 202.835938 255.65625 202.648438 255.65625 202.464844 255.730469 C 202.277344 255.804688 202.144531 255.933594 202.0625 256.117188 L 187.542969 290.128906 C 187.46875 290.316406 187.46875 290.503906 187.542969 290.6875 C 187.621094 290.875 187.75 291.007812 187.9375 291.085938 C 188.027344 291.125 188.121094 291.144531 188.21875 291.144531 C 188.542969 291.140625 188.765625 290.992188 188.890625 290.695312 L 203.40625 256.675781 C 203.476562 256.492188 203.476562 256.308594 203.402344 256.125 C 203.328125 255.945312 203.203125 255.8125 203.023438 255.734375 Z M 203.023438 255.734375 " fill-opacity="1" fill-rule="nonzero"/><path fill="#c7d2fe" d="M 217.722656 260.277344 C 217.53125 260.238281 217.347656 260.273438 217.183594 260.386719 C 217.015625 260.492188 216.910156 260.640625 216.867188 260.835938 L 213.214844 279.25 C 213.171875 279.449219 213.210938 279.628906 213.324219 279.796875 C 213.46875 280.011719 213.667969 280.117188 213.925781 280.117188 C 214.101562 280.117188 214.253906 280.0625 214.390625 279.953125 C 214.523438 279.84375 214.609375 279.703125 214.644531 279.53125 L 218.296875 261.121094 C 218.335938 260.921875 218.300781 260.742188 218.1875 260.574219 C 218.074219 260.414062 217.917969 260.316406 217.722656 260.277344 Z M 217.722656 260.277344 " fill-opacity="1" fill-rule="nonzero"/><path fill="#c7d2fe" d="M 250.644531 94.441406 C 250.445312 94.402344 250.265625 94.4375 250.097656 94.550781 C 249.929688 94.664062 249.828125 94.816406 249.789062 95.011719 L 246.070312 113.730469 C 246.03125 113.929688 246.066406 114.109375 246.179688 114.277344 C 246.289062 114.441406 246.4375 114.546875 246.628906 114.585938 C 246.679688 114.59375 246.726562 114.59375 246.773438 114.585938 C 246.949219 114.585938 247.101562 114.53125 247.234375 114.421875 C 247.367188 114.3125 247.453125 114.171875 247.484375 114.003906 L 251.203125 95.285156 C 251.238281 95.089844 251.199219 94.914062 251.09375 94.75 C 250.984375 94.585938 250.835938 94.484375 250.644531 94.441406 Z M 250.644531 94.441406 " fill-opacity="1" fill-rule="nonzero"/><path fill="#c7d2fe" d="M 305.421875 201.429688 C 305.257812 201.539062 305.152344 201.6875 305.109375 201.878906 C 305.070312 202.074219 305.105469 202.257812 305.214844 202.425781 C 305.324219 202.589844 305.472656 202.691406 305.667969 202.734375 L 324.082031 206.386719 C 324.128906 206.394531 324.179688 206.394531 324.226562 206.386719 C 324.398438 206.386719 324.554688 206.332031 324.6875 206.21875 C 324.820312 206.109375 324.902344 205.96875 324.9375 205.796875 C 324.976562 205.601562 324.941406 205.417969 324.828125 205.253906 C 324.722656 205.089844 324.570312 204.984375 324.378906 204.941406 L 305.96875 201.289062 C 305.765625 201.257812 305.585938 201.304688 305.421875 201.429688 Z M 305.421875 201.429688 " fill-opacity="1" fill-rule="nonzero"/><path fill="#c7d2fe" d="M 310.960938 134.746094 C 310.847656 134.582031 310.695312 134.476562 310.496094 134.4375 C 310.300781 134.398438 310.117188 134.4375 309.949219 134.550781 L 294.039062 145.183594 C 293.875 145.296875 293.773438 145.453125 293.734375 145.648438 C 293.695312 145.847656 293.730469 146.027344 293.84375 146.195312 C 293.953125 146.363281 294.109375 146.46875 294.304688 146.507812 C 294.503906 146.546875 294.683594 146.507812 294.851562 146.394531 L 310.761719 135.757812 C 310.929688 135.644531 311.03125 135.492188 311.070312 135.292969 C 311.109375 135.097656 311.074219 134.914062 310.960938 134.746094 Z M 310.960938 134.746094 " fill-opacity="1" fill-rule="nonzero"/><path fill="#c7d2fe" d="M 189.941406 125.578125 C 190.121094 125.84375 190.371094 125.949219 190.6875 125.886719 C 191.003906 125.824219 191.195312 125.632812 191.261719 125.316406 C 191.300781 125.117188 191.265625 124.933594 191.152344 124.765625 L 180.414062 108.710938 C 180.296875 108.554688 180.144531 108.457031 179.953125 108.425781 C 179.757812 108.390625 179.582031 108.429688 179.421875 108.535156 C 179.257812 108.644531 179.15625 108.792969 179.113281 108.984375 C 179.070312 109.175781 179.101562 109.355469 179.203125 109.519531 Z M 189.941406 125.578125 " fill-opacity="1" fill-rule="nonzero"/><path fill="#c7d2fe" d="M 274.53125 249.429688 C 274.421875 249.261719 274.265625 249.15625 274.070312 249.117188 C 273.871094 249.078125 273.691406 249.113281 273.523438 249.226562 C 273.355469 249.332031 273.253906 249.484375 273.210938 249.675781 C 273.171875 249.871094 273.207031 250.054688 273.320312 250.21875 L 283.816406 265.914062 C 283.992188 266.167969 284.234375 266.269531 284.542969 266.214844 C 284.847656 266.164062 285.042969 265.984375 285.121094 265.683594 C 285.160156 265.488281 285.125 265.304688 285.011719 265.136719 Z M 274.53125 249.429688 " fill-opacity="1" fill-rule="nonzero"/><path fill="#c7d2fe" d="M 325.242188 169.949219 C 325.207031 169.753906 325.101562 169.597656 324.9375 169.484375 C 324.773438 169.371094 324.589844 169.332031 324.390625 169.371094 L 305.75 172.871094 C 305.5625 172.90625 305.417969 172.996094 305.304688 173.148438 C 305.191406 173.296875 305.144531 173.464844 305.160156 173.652344 C 305.175781 173.835938 305.253906 173.992188 305.390625 174.121094 C 305.53125 174.246094 305.691406 174.3125 305.878906 174.316406 L 306.015625 174.316406 L 324.664062 170.816406 C 324.863281 170.777344 325.019531 170.671875 325.132812 170.503906 C 325.246094 170.335938 325.28125 170.148438 325.242188 169.949219 Z M 325.242188 169.949219 " fill-opacity="1" fill-rule="nonzero"/><path fill="#c7d2fe" d="M 215.570312 95.035156 C 215.523438 94.847656 215.421875 94.703125 215.257812 94.597656 C 215.097656 94.492188 214.917969 94.457031 214.730469 94.492188 C 214.539062 94.527344 214.386719 94.625 214.273438 94.78125 C 214.160156 94.9375 214.113281 95.109375 214.140625 95.300781 L 217.640625 113.945312 C 217.671875 114.113281 217.757812 114.257812 217.890625 114.367188 C 218.027344 114.480469 218.179688 114.535156 218.355469 114.539062 C 218.398438 114.542969 218.445312 114.542969 218.492188 114.539062 C 218.6875 114.503906 218.84375 114.402344 218.957031 114.234375 C 219.070312 114.070312 219.109375 113.890625 219.070312 113.691406 Z M 215.570312 95.035156 " fill-opacity="1" fill-rule="nonzero"/><path fill="#c7d2fe" d="M 246.742188 260.972656 C 246.714844 260.765625 246.617188 260.601562 246.445312 260.480469 C 246.277344 260.359375 246.089844 260.316406 245.882812 260.355469 C 245.679688 260.394531 245.519531 260.5 245.40625 260.675781 C 245.292969 260.851562 245.261719 261.039062 245.308594 261.242188 L 248.800781 279.835938 C 248.835938 280.007812 248.917969 280.148438 249.054688 280.257812 C 249.1875 280.371094 249.34375 280.429688 249.519531 280.429688 C 249.5625 280.433594 249.609375 280.433594 249.652344 280.429688 C 249.851562 280.394531 250.007812 280.292969 250.121094 280.128906 C 250.234375 279.960938 250.273438 279.78125 250.234375 279.582031 Z M 246.742188 260.972656 " fill-opacity="1" fill-rule="nonzero"/><path fill="#c7d2fe" d="M 293.550781 229.378906 C 293.4375 229.546875 293.398438 229.726562 293.4375 229.925781 C 293.476562 230.117188 293.578125 230.269531 293.742188 230.375 L 309.238281 240.972656 C 309.40625 241.085938 309.585938 241.125 309.785156 241.085938 C 309.980469 241.046875 310.136719 240.945312 310.25 240.78125 C 310.363281 240.617188 310.402344 240.433594 310.367188 240.234375 C 310.324219 240.042969 310.222656 239.894531 310.058594 239.785156 L 294.582031 229.199219 C 294.414062 229.078125 294.230469 229.035156 294.027344 229.070312 C 293.824219 229.105469 293.664062 229.210938 293.550781 229.378906 Z M 293.550781 229.378906 " fill-opacity="1" fill-rule="nonzero"/><path fill="#c7d2fe" d="M 274.09375 126.140625 C 274.261719 126.253906 274.441406 126.289062 274.640625 126.253906 C 274.835938 126.214844 274.992188 126.117188 275.109375 125.949219 L 285.863281 110.21875 C 285.953125 110.054688 285.976562 109.882812 285.933594 109.703125 C 285.890625 109.519531 285.789062 109.378906 285.636719 109.273438 C 285.484375 109.167969 285.316406 109.125 285.132812 109.148438 C 284.945312 109.171875 284.792969 109.253906 284.671875 109.394531 L 273.90625 125.125 C 273.789062 125.292969 273.75 125.476562 273.789062 125.671875 C 273.824219 125.871094 273.925781 126.027344 274.09375 126.140625 Z M 274.09375 126.140625 " fill-opacity="1" fill-rule="nonzero"/><path fill="#c7d2fe" d="M 190.570312 249.1875 C 190.53125 249 190.429688 248.847656 190.269531 248.738281 C 190.101562 248.625 189.921875 248.589844 189.722656 248.625 C 189.527344 248.664062 189.371094 248.761719 189.253906 248.929688 L 178.507812 264.648438 C 178.394531 264.8125 178.355469 264.996094 178.394531 265.191406 C 178.433594 265.390625 178.535156 265.542969 178.703125 265.65625 C 178.824219 265.742188 178.960938 265.785156 179.113281 265.785156 C 179.367188 265.785156 179.566406 265.679688 179.710938 265.464844 L 190.457031 249.753906 C 190.578125 249.582031 190.613281 249.394531 190.570312 249.1875 Z M 190.570312 249.1875 " fill-opacity="1" fill-rule="nonzero"/></svg>